# xmcd
#
# Track frame offsets:
#	150
#	15630
#	28935
#	43214
#	54673
#	66760
#	79587
#	92484
#	105481
#	121373
#	131182
#	143607
#	155219
#	167543
#	182575
#	193347
#
# Disc length: 2843 seconds
#
# Revision: 2
# Processed by: cddbd v1.4PL0 Copyright (c) Steve Scherf et al.
# Submitted via: EZCDDA 4.3.2
#
DISCID=dd0b1910
DTITLE=John Williams - Music From Hollywood
DYEAR=1900
DGENRE=
TTITLE0=A Men Could Get Killed
TTITLE1=Under Water
TTITLE2=God Father
TTITLE3=Rocky
TTITLE4=The Alamo
TTITLE5=The Good The Bad and The Ugly
TTITLE6=Dr. Jivago
TTITLE7=Zorba The Greek
TTITLE8=Love Story
TTITLE9=The Magnificent Seven
TTITLE10=A Man and A Woman
TTITLE11=From Russia with Love
TTITLE12=Breakfasr in Tiffany's
TTITLE13=Never On Sunday
TTITLE14=The Rivr Kwai March
TTITLE15=Superman The Movie
EXTD=
EXTT0=
EXTT1=
EXTT2=
EXTT3=
EXTT4=
EXTT5=
EXTT6=
EXTT7=
EXTT8=
EXTT9=
EXTT10=
EXTT11=
EXTT12=
EXTT13=
EXTT14=
EXTT15=
PLAYORDER=
